<?xml version="1.0" encoding="UTF-8" standalone="no"?>
<!-- Created with Inkscape (http://www.inkscape.org/) -->

<svg
   xmlns:dc="http://purl.org/dc/elements/1.1/"
   xmlns:cc="http://creativecommons.org/ns#"
   xmlns:rdf="http://www.w3.org/1999/02/22-rdf-syntax-ns#"
   xmlns:svg="http://www.w3.org/2000/svg"
   xmlns="http://www.w3.org/2000/svg"
   xmlns:sodipodi="http://sodipodi.sourceforge.net/DTD/sodipodi-0.dtd"
   xmlns:inkscape="http://www.inkscape.org/namespaces/inkscape"
   width="226.27541mm"
   height="74.758202mm"
   viewBox="0 0 226.27541 74.758202"
   version="1.1"
   id="svg9592"
   inkscape:version="0.92.1 r15371"
   sodipodi:docname="sinusoidal-sidebar.svg">
  <defs
     id="defs9586">
    <marker
       inkscape:stockid="Arrow1Lstart"
       orient="auto"
       refY="0"
       refX="0"
       id="Arrow1Lstart"
       style="overflow:visible"
       inkscape:isstock="true">
      <path
         id="path10186"
         d="M 0,0 5,-5 -12.5,0 5,5 Z"
         style="fill:#444444;fill-opacity:1;fill-rule:evenodd;stroke:#444444;stroke-width:1.00000003pt;stroke-opacity:1"
         transform="matrix(0.8,0,0,0.8,10,0)"
         inkscape:connector-curvature="0" />
    </marker>
  </defs>
  <sodipodi:namedview
     id="base"
     pagecolor="#ffffff"
     bordercolor="#666666"
     borderopacity="1.0"
     inkscape:pageopacity="0.0"
     inkscape:pageshadow="2"
     inkscape:zoom="0.49497475"
     inkscape:cx="-99.351373"
     inkscape:cy="250.23654"
     inkscape:document-units="mm"
     inkscape:current-layer="text6304"
     showgrid="false"
     showguides="false"
     inkscape:window-width="1440"
     inkscape:window-height="1080"
     inkscape:window-x="1920"
     inkscape:window-y="0"
     inkscape:window-maximized="0"
     fit-margin-top="0"
     fit-margin-left="0"
     fit-margin-right="0"
     fit-margin-bottom="0">
    <inkscape:grid
       type="xygrid"
       id="grid10184"
       originx="4.8424622"
       originy="-227.07247" />
  </sodipodi:namedview>
  <metadata
     id="metadata9589">
    <rdf:RDF>
      <cc:Work
         rdf:about="">
        <dc:format>image/svg+xml</dc:format>
        <dc:type
           rdf:resource="http://purl.org/dc/dcmitype/StillImage" />
        <dc:title />
      </cc:Work>
    </rdf:RDF>
  </metadata>
  <g
     inkscape:label="Layer 1"
     inkscape:groupmode="layer"
     id="layer1"
     transform="translate(4.8424619,4.83067)">
    <g
       aria-label="sinusoidal
engineering"
       style="font-style:normal;font-variant:normal;font-weight:bold;font-stretch:normal;font-size:27.9690609px;line-height:89.99999762%;font-family:'Source Sans Pro';-inkscape-font-specification:'Source Sans Pro, Bold';text-align:start;letter-spacing:0px;word-spacing:0px;writing-mode:lr-tb;text-anchor:start;fill:#444444;fill-opacity:1;stroke:none;stroke-width:0.26440701px;stroke-linecap:butt;stroke-linejoin:miter;stroke-opacity:1"
       id="text6304">
      <path
         d="m 76.442647,34.686515 q 0.950948,0.727195 1.817989,1.090793 0.867041,0.363598 1.76205,0.363598 0.922979,0 1.342515,-0.30766 0.419536,-0.30766 0.419536,-0.867041 0,-0.335628 -0.251721,-0.58735 -0.223753,-0.279691 -0.643289,-0.503443 -0.391566,-0.223753 -0.89501,-0.391567 -0.503443,-0.195783 -1.034855,-0.419536 -0.643288,-0.251721 -1.286577,-0.58735 -0.643288,-0.335629 -1.1747,-0.811103 -0.531412,-0.503443 -0.867041,-1.146731 -0.335629,-0.671258 -0.335629,-1.538299 0,-0.950948 0.363598,-1.762051 0.391567,-0.811102 1.090793,-1.370484 0.699227,-0.559381 1.678144,-0.86704 0.978917,-0.335629 2.181587,-0.335629 1.594236,0 2.796906,0.559381 1.202669,0.531412 2.097679,1.20267 l -1.845958,2.461277 q -0.755164,-0.559381 -1.48236,-0.867041 -0.727195,-0.30766 -1.454391,-0.30766 -1.566267,0 -1.566267,1.090794 0,0.335629 0.223752,0.58735 0.223753,0.223753 0.58735,0.419536 0.391567,0.195783 0.867041,0.391567 0.503443,0.167814 1.034855,0.363598 0.671258,0.251721 1.314546,0.58735 0.671258,0.30766 1.20267,0.783134 0.559381,0.475474 0.89501,1.1747 0.335629,0.671258 0.335629,1.622206 0,0.950948 -0.363598,1.762051 -0.363598,0.811102 -1.090794,1.426422 -0.727195,0.58735 -1.790019,0.950948 -1.062825,0.335628 -2.461278,0.335628 -1.370484,0 -2.824875,-0.531412 -1.426422,-0.531412 -2.489246,-1.398453 z"
         style="stroke-width:0.26440701px"
         id="path4501" />
      <path
         d="m 90.269415,22.939509 q -1.034856,0 -1.706113,-0.58735 -0.671258,-0.61532 -0.671258,-1.566268 0,-0.950948 0.671258,-1.538298 0.671257,-0.58735 1.706113,-0.58735 1.062824,0 1.706112,0.58735 0.671258,0.58735 0.671258,1.538298 0,0.950948 -0.671258,1.566268 -0.643288,0.58735 -1.706112,0.58735 z m -2.041742,2.041742 h 4.111452 v 13.872654 h -4.111452 z"
         style="stroke-width:0.26440701px"
         id="path4503" />
      <path
         d="m 95.930091,24.981251 h 3.356288 l 0.27969,1.76205 h 0.111877 q 0.895014,-0.839071 1.957834,-1.454391 1.06282,-0.643288 2.48925,-0.643288 2.26549,0 3.27238,1.48236 1.03485,1.48236 1.03485,4.111452 v 8.614471 h -4.11145 v -8.083059 q 0,-1.510329 -0.41954,-2.06971 -0.39156,-0.559382 -1.28657,-0.559382 -0.78314,0 -1.34252,0.363598 -0.55938,0.335629 -1.23064,0.978917 v 9.369636 h -4.111449 z"
         style="stroke-width:0.26440701px"
         id="path4505" />
      <path
         d="m 111.79598,24.981251 h 4.11145 v 8.083058 q 0,1.510329 0.41953,2.069711 0.41954,0.559381 1.31455,0.559381 0.78313,0 1.31455,-0.363598 0.53141,-0.363598 1.14673,-1.174701 v -9.173851 h 4.11145 v 13.872654 h -3.35629 l -0.30766,-1.929865 h -0.0839 q -0.89501,1.062824 -1.92986,1.678143 -1.00689,0.58735 -2.43331,0.58735 -2.26549,0 -3.30035,-1.48236 -1.00688,-1.48236 -1.00688,-4.111452 z"
         style="stroke-width:0.26440701px"
         id="path4507" />
      <path
         d="m 128.44762,34.686515 q 0.95095,0.727195 1.81799,1.090793 0.86704,0.363598 1.76205,0.363598 0.92298,0 1.34252,-0.30766 0.41953,-0.30766 0.41953,-0.867041 0,-0.335628 -0.25172,-0.58735 -0.22375,-0.279691 -0.64329,-0.503443 -0.39157,-0.223753 -0.89501,-0.391567 -0.50344,-0.195783 -1.03485,-0.419536 -0.64329,-0.251721 -1.28658,-0.58735 -0.64329,-0.335629 -1.1747,-0.811103 -0.53141,-0.503443 -0.86704,-1.146731 -0.33563,-0.671258 -0.33563,-1.538299 0,-0.950948 0.3636,-1.762051 0.39156,-0.811102 1.09079,-1.370484 0.69923,-0.559381 1.67814,-0.86704 0.97892,-0.335629 2.18159,-0.335629 1.59424,0 2.79691,0.559381 1.20267,0.531412 2.09768,1.20267 l -1.84596,2.461277 q -0.75517,-0.559381 -1.48236,-0.867041 -0.7272,-0.30766 -1.45439,-0.30766 -1.56627,0 -1.56627,1.090794 0,0.335629 0.22375,0.58735 0.22375,0.223753 0.58735,0.419536 0.39157,0.195783 0.86704,0.391567 0.50345,0.167814 1.03486,0.363598 0.67126,0.251721 1.31454,0.58735 0.67126,0.30766 1.20267,0.783134 0.55939,0.475474 0.89501,1.1747 0.33563,0.671258 0.33563,1.622206 0,0.950948 -0.36359,1.762051 -0.3636,0.811102 -1.0908,1.426422 -0.72719,0.58735 -1.79002,0.950948 -1.06282,0.335628 -2.46128,0.335628 -1.37048,0 -2.82487,-0.531412 -1.42642,-0.531412 -2.48925,-1.398453 z"
         style="stroke-width:0.26440701px"
         id="path4509" />
      <path
         d="m 139.42154,31.917578 q 0,-1.734082 0.55939,-3.076597 0.55938,-1.370484 1.48236,-2.293463 0.95094,-0.922979 2.18158,-1.398453 1.23064,-0.503443 2.54519,-0.503443 1.31454,0 2.51721,0.503443 1.23064,0.475474 2.15362,1.398453 0.95095,0.922979 1.51033,2.293463 0.55938,1.342515 0.55938,3.076597 0,1.734081 -0.55938,3.104565 -0.55938,1.342515 -1.51033,2.265494 -0.92298,0.922979 -2.15362,1.426422 -1.20267,0.475474 -2.51721,0.475474 -1.31455,0 -2.54519,-0.475474 -1.23064,-0.503443 -2.18158,-1.426422 -0.92298,-0.922979 -1.48236,-2.265494 -0.55939,-1.370484 -0.55939,-3.104565 z m 4.22333,0 q 0,1.817989 0.61532,2.880813 0.64329,1.062824 1.92987,1.062824 1.2586,0 1.90189,-1.062824 0.64329,-1.062824 0.64329,-2.880813 0,-1.817989 -0.64329,-2.880814 -0.64329,-1.062824 -1.90189,-1.062824 -1.28658,0 -1.92987,1.062824 -0.61532,1.062825 -0.61532,2.880814 z"
         style="stroke-width:0.26440701px"
         id="path4511" />
      <path
         d="m 157.78847,22.939509 q -1.03485,0 -1.70611,-0.58735 -0.67126,-0.61532 -0.67126,-1.566268 0,-0.950948 0.67126,-1.538298 0.67126,-0.58735 1.70611,-0.58735 1.06283,0 1.70611,0.58735 0.67126,0.58735 0.67126,1.538298 0,0.950948 -0.67126,1.566268 -0.64328,0.58735 -1.70611,0.58735 z m -2.04174,2.041742 h 4.11145 v 13.872654 h -4.11145 z"
         style="stroke-width:0.26440701px"
         id="path4513" />
      <path
         d="m 162.72196,31.917578 q 0,-1.706113 0.47547,-3.048628 0.50345,-1.342515 1.28658,-2.265494 0.8111,-0.950948 1.84596,-1.454391 1.06282,-0.503443 2.15361,-0.503443 1.17471,0 1.92987,0.391567 0.75516,0.391566 1.48236,1.062824 L 171.728,23.974364 v -4.726771 h 4.11145 v 19.606312 h -3.35629 l -0.27969,-1.370484 h -0.11188 q -0.72719,0.727195 -1.70611,1.230638 -0.97892,0.475474 -1.9858,0.475474 -1.28658,0 -2.3494,-0.503443 -1.03486,-0.503443 -1.79002,-1.426422 -0.7272,-0.950948 -1.14674,-2.293463 -0.39156,-1.342515 -0.39156,-3.048627 z m 4.22333,-0.05594 q 0,2.069711 0.64328,3.020659 0.67126,0.950948 1.87393,0.950948 0.67126,0 1.20267,-0.27969 0.55938,-0.279691 1.06283,-0.978918 v -5.677719 q -0.55939,-0.503443 -1.14674,-0.699226 -0.58735,-0.195784 -1.14673,-0.195784 -0.97891,0 -1.73408,0.950948 -0.75516,0.922979 -0.75516,2.908782 z"
         style="stroke-width:0.26440701px"
         id="path4515" />
      <path
         d="m 178.95144,34.994174 q 0,-2.181586 1.84596,-3.412225 1.84596,-1.230639 5.95741,-1.650175 -0.0559,-0.922979 -0.55938,-1.454391 -0.50345,-0.559381 -1.62221,-0.559381 -0.89501,0 -1.79002,0.335629 -0.89501,0.335628 -1.90189,0.922979 l -1.4544,-2.712999 q 1.34252,-0.811103 2.79691,-1.314546 1.48236,-0.503443 3.13254,-0.503443 2.68502,0 4.08348,1.538298 1.42642,1.510329 1.42642,4.726771 v 7.943214 h -3.35629 l -0.30766,-1.426422 h -0.0839 q -0.89501,0.783133 -1.9019,1.286576 -0.97892,0.475474 -2.15362,0.475474 -0.95095,0 -1.70611,-0.335628 -0.75517,-0.30766 -1.28658,-0.867041 -0.53141,-0.58735 -0.83907,-1.342515 -0.27969,-0.755165 -0.27969,-1.650175 z m 3.91567,-0.307659 q 0,0.671257 0.41953,1.006886 0.44751,0.30766 1.17471,0.30766 0.72719,0 1.23063,-0.30766 0.50345,-0.30766 1.06283,-0.867041 v -2.433308 q -2.20956,0.307659 -3.04863,0.89501 -0.83907,0.58735 -0.83907,1.398453 z"
         style="stroke-width:0.26440701px"
         id="path4517" />
      <path
         d="m 194.36808,19.247593 h 4.11145 v 15.466891 q 0,0.643288 0.22375,0.89501 0.25172,0.251721 0.50344,0.251721 0.13985,0 0.22376,0 0.11187,0 0.27969,-0.05594 l 0.50344,3.048628 q -0.33563,0.139845 -0.86704,0.223752 -0.50344,0.111876 -1.20267,0.111876 -1.06283,0 -1.79002,-0.335628 -0.7272,-0.335629 -1.1747,-0.922979 -0.41954,-0.61532 -0.61532,-1.454391 -0.19578,-0.867041 -0.19578,-1.929866 z"
         style="stroke-width:0.26440701px"
         id="path4519" />
      <path
         d="m 75.016225,57.089732 q 0,-1.678144 0.559381,-3.020659 0.559381,-1.370484 1.454391,-2.293463 0.922979,-0.950948 2.09768,-1.454391 1.1747,-0.503443 2.433308,-0.503443 1.48236,0 2.573153,0.503443 1.118763,0.503443 1.845958,1.398453 0.755165,0.89501 1.118763,2.125649 0.363598,1.202669 0.363598,2.629091 0,0.559382 -0.05594,1.034856 -0.05594,0.447505 -0.111877,0.699226 h -8.306811 q 0.279691,1.594237 1.230639,2.321432 0.978917,0.699227 2.37737,0.699227 1.48236,0 2.99269,-0.922979 l 1.370484,2.489246 q -1.062825,0.727196 -2.377371,1.146732 -1.286576,0.419536 -2.545184,0.419536 -1.48236,0 -2.768937,-0.475474 -1.286577,-0.503444 -2.237525,-1.426423 -0.950948,-0.950948 -1.48236,-2.293463 -0.531412,-1.342514 -0.531412,-3.076596 z m 8.950099,-1.426422 q 0,-1.20267 -0.531412,-1.957835 -0.531412,-0.755164 -1.79002,-0.755164 -0.978917,0 -1.734082,0.671257 -0.727195,0.643289 -0.950948,2.041742 z"
         style="fill:#9e9e9e;fill-opacity:1;stroke-width:0.26440701px"
         id="path4521" />
      <path
         d="m 90.303502,50.153405 h 3.356287 l 0.279691,1.76205 h 0.111876 q 0.89501,-0.839071 1.957834,-1.454391 1.062824,-0.643288 2.489247,-0.643288 2.265493,0 3.272383,1.48236 1.03485,1.48236 1.03485,4.111452 v 8.614471 H 98.69422 V 55.943 q 0,-1.510329 -0.419536,-2.06971 -0.391567,-0.559381 -1.286577,-0.559381 -0.783133,0 -1.342515,0.363597 -0.559381,0.335629 -1.230638,0.978917 v 9.369636 h -4.111452 z"
         style="fill:#9e9e9e;fill-opacity:1;stroke-width:0.26440701px"
         id="path4523" />
      <path
         d="m 108.82645,65.760141 q 0,0.783133 0.83907,1.1747 0.83907,0.419536 2.23753,0.419536 1.39845,0 2.29346,-0.503443 0.89501,-0.475474 0.89501,-1.20267 0,-0.643288 -0.55938,-0.86704 -0.53141,-0.223753 -1.56627,-0.223753 h -1.42642 q -0.7272,0 -1.1747,-0.05594 -0.44751,-0.02797 -0.78314,-0.111876 -0.75516,0.671257 -0.75516,1.370484 z m -3.38426,0.643288 q 0,-1.678144 1.98581,-2.796906 v -0.111876 q -0.55938,-0.363598 -0.92298,-0.922979 -0.3636,-0.559382 -0.3636,-1.426422 0,-0.755165 0.4475,-1.426423 0.44751,-0.699226 1.11877,-1.1747 v -0.111876 q -0.7272,-0.503443 -1.31455,-1.426422 -0.55938,-0.950948 -0.55938,-2.181587 0,-1.258608 0.47547,-2.181587 0.47548,-0.950948 1.25861,-1.566267 0.8111,-0.643289 1.84596,-0.950948 1.03486,-0.30766 2.15362,-0.30766 1.23064,0 2.15362,0.335629 h 5.0624 v 2.992689 h -2.20956 q 0.19578,0.30766 0.30766,0.783134 0.13984,0.475474 0.13984,1.034855 0,1.20267 -0.41953,2.09768 -0.41954,0.867041 -1.1747,1.454391 -0.7272,0.559381 -1.73408,0.839072 -0.97892,0.27969 -2.12565,0.27969 -0.81111,0 -1.67815,-0.27969 -0.27969,0.223752 -0.39156,0.447505 -0.11188,0.223752 -0.11188,0.58735 0,0.531412 0.44751,0.783134 0.47547,0.251721 1.65017,0.251721 h 2.23753 q 2.57315,0 3.91566,0.839072 1.37049,0.811103 1.37049,2.68503 0,1.090793 -0.55938,1.985803 -0.53142,0.922979 -1.5383,1.566268 -1.00689,0.671257 -2.43331,1.034855 -1.42642,0.391567 -3.21644,0.391567 -1.23064,0 -2.29346,-0.223753 -1.03486,-0.195783 -1.84596,-0.615319 -0.78314,-0.419536 -1.23064,-1.090793 -0.44751,-0.671258 -0.44751,-1.594237 z m 6.12523,-9.257759 q 0.8111,0 1.34251,-0.559381 0.55938,-0.587351 0.55938,-1.762051 0,-1.090794 -0.55938,-1.650175 -0.53141,-0.58735 -1.34251,-0.58735 -0.81111,0 -1.37049,0.559381 -0.53141,0.559381 -0.53141,1.678144 0,1.1747 0.53141,1.762051 0.55938,0.559381 1.37049,0.559381 z"
         style="fill:#9e9e9e;fill-opacity:1;stroke-width:0.26440701px"
         id="path4525" />
      <path
         d="m 123.26416,48.111663 q -1.03485,0 -1.70611,-0.58735 -0.67126,-0.615319 -0.67126,-1.566267 0,-0.950949 0.67126,-1.538299 0.67126,-0.58735 1.70611,-0.58735 1.06283,0 1.70612,0.58735 0.67125,0.58735 0.67125,1.538299 0,0.950948 -0.67125,1.566267 -0.64329,0.58735 -1.70612,0.58735 z m -2.04174,2.041742 h 4.11146 v 13.872654 h -4.11146 z"
         style="fill:#9e9e9e;fill-opacity:1;stroke-width:0.26440701px"
         id="path4527" />
      <path
         d="m 128.92484,50.153405 h 3.35629 l 0.27969,1.76205 h 0.11188 q 0.89501,-0.839071 1.95783,-1.454391 1.06283,-0.643288 2.48925,-0.643288 2.26549,0 3.27238,1.48236 1.03485,1.48236 1.03485,4.111452 v 8.614471 h -4.11145 V 55.943 q 0,-1.510329 -0.41954,-2.06971 -0.39156,-0.559381 -1.28657,-0.559381 -0.78314,0 -1.34252,0.363597 -0.55938,0.335629 -1.23064,0.978917 v 9.369636 h -4.11145 z"
         style="fill:#9e9e9e;fill-opacity:1;stroke-width:0.26440701px"
         id="path4529" />
      <path
         d="m 144.11947,57.089732 q 0,-1.678144 0.55938,-3.020659 0.55939,-1.370484 1.4544,-2.293463 0.92297,-0.950948 2.09768,-1.454391 1.1747,-0.503443 2.4333,-0.503443 1.48236,0 2.57316,0.503443 1.11876,0.503443 1.84596,1.398453 0.75516,0.89501 1.11876,2.125649 0.3636,1.202669 0.3636,2.629091 0,0.559382 -0.0559,1.034856 -0.0559,0.447505 -0.11188,0.699226 h -8.30681 q 0.27969,1.594237 1.23064,2.321432 0.97892,0.699227 2.37737,0.699227 1.48236,0 2.99269,-0.922979 l 1.37048,2.489246 q -1.06282,0.727196 -2.37737,1.146732 -1.28657,0.419536 -2.54518,0.419536 -1.48236,0 -2.76894,-0.475474 -1.28658,-0.503444 -2.23752,-1.426423 -0.95095,-0.950948 -1.48236,-2.293463 -0.53142,-1.342514 -0.53142,-3.076596 z m 8.9501,-1.426422 q 0,-1.20267 -0.53141,-1.957835 -0.53141,-0.755164 -1.79002,-0.755164 -0.97892,0 -1.73408,0.671257 -0.7272,0.643289 -0.95095,2.041742 z"
         style="fill:#9e9e9e;fill-opacity:1;stroke-width:0.26440701px"
         id="path4531" />
      <path
         d="m 158.59565,57.089732 q 0,-1.678144 0.55938,-3.020659 0.55938,-1.370484 1.45439,-2.293463 0.92298,-0.950948 2.09768,-1.454391 1.1747,-0.503443 2.43331,-0.503443 1.48236,0 2.57315,0.503443 1.11876,0.503443 1.84596,1.398453 0.75516,0.89501 1.11876,2.125649 0.3636,1.202669 0.3636,2.629091 0,0.559382 -0.0559,1.034856 -0.0559,0.447505 -0.11188,0.699226 h -8.30681 q 0.27969,1.594237 1.23064,2.321432 0.97892,0.699227 2.37737,0.699227 1.48236,0 2.99269,-0.922979 l 1.37049,2.489246 q -1.06283,0.727196 -2.37737,1.146732 -1.28658,0.419536 -2.54519,0.419536 -1.48236,0 -2.76894,-0.475474 -1.28657,-0.503444 -2.23752,-1.426423 -0.95095,-0.950948 -1.48236,-2.293463 -0.53141,-1.342514 -0.53141,-3.076596 z m 8.9501,-1.426422 q 0,-1.20267 -0.53142,-1.957835 -0.53141,-0.755164 -1.79002,-0.755164 -0.97891,0 -1.73408,0.671257 -0.72719,0.643289 -0.95095,2.041742 z"
         style="fill:#9e9e9e;fill-opacity:1;stroke-width:0.26440701px"
         id="path4533" />
      <path
         d="m 173.88292,50.153405 h 3.35629 l 0.27969,2.433308 h 0.11188 q 0.75516,-1.426422 1.81799,-2.09768 1.06282,-0.671257 2.12564,-0.671257 0.58735,0 0.95095,0.08391 0.39157,0.05594 0.69923,0.195784 l -0.67126,3.55207 q -0.39157,-0.111876 -0.72719,-0.167814 -0.33563,-0.05594 -0.78314,-0.05594 -0.78313,0 -1.65017,0.559381 -0.83907,0.559381 -1.39846,1.985803 v 8.05509 h -4.11145 z"
         style="fill:#9e9e9e;fill-opacity:1;stroke-width:0.26440701px"
         id="path4535" />
      <path
         d="m 187.06859,48.111663 q -1.03486,0 -1.70612,-0.58735 -0.67126,-0.615319 -0.67126,-1.566267 0,-0.950949 0.67126,-1.538299 0.67126,-0.58735 1.70612,-0.58735 1.06282,0 1.70611,0.58735 0.67126,0.58735 0.67126,1.538299 0,0.950948 -0.67126,1.566267 -0.64329,0.58735 -1.70611,0.58735 z m -2.04175,2.041742 h 4.11146 v 13.872654 h -4.11146 z"
         style="fill:#9e9e9e;fill-opacity:1;stroke-width:0.26440701px"
         id="path4537" />
      <path
         d="m 192.72926,50.153405 h 3.35629 l 0.27969,1.76205 h 0.11187 q 0.89501,-0.839071 1.95784,-1.454391 1.06282,-0.643288 2.48924,-0.643288 2.2655,0 3.27238,1.48236 1.03486,1.48236 1.03486,4.111452 v 8.614471 h -4.11145 V 55.943 q 0,-1.510329 -0.41954,-2.06971 -0.39157,-0.559381 -1.28658,-0.559381 -0.78313,0 -1.34251,0.363597 -0.55938,0.335629 -1.23064,0.978917 v 9.369636 h -4.11145 z"
         style="fill:#9e9e9e;fill-opacity:1;stroke-width:0.26440701px"
         id="path4539" />
      <path
         d="m 211.25221,65.760141 q 0,0.783133 0.83907,1.1747 0.83908,0.419536 2.23753,0.419536 1.39845,0 2.29346,-0.503443 0.89501,-0.475474 0.89501,-1.20267 0,-0.643288 -0.55938,-0.86704 -0.53141,-0.223753 -1.56627,-0.223753 h -1.42642 q -0.72719,0 -1.1747,-0.05594 -0.4475,-0.02797 -0.78313,-0.111876 -0.75517,0.671257 -0.75517,1.370484 z m -3.38425,0.643288 q 0,-1.678144 1.9858,-2.796906 v -0.111876 q -0.55938,-0.363598 -0.92298,-0.922979 -0.3636,-0.559382 -0.3636,-1.426422 0,-0.755165 0.44751,-1.426423 0.4475,-0.699226 1.11876,-1.1747 v -0.111876 q -0.7272,-0.503443 -1.31455,-1.426422 -0.55938,-0.950948 -0.55938,-2.181587 0,-1.258608 0.47548,-2.181587 0.47547,-0.950948 1.2586,-1.566267 0.81111,-0.643289 1.84596,-0.950948 1.03486,-0.30766 2.15362,-0.30766 1.23064,0 2.15362,0.335629 h 5.0624 v 2.992689 h -2.20956 q 0.19579,0.30766 0.30766,0.783134 0.13985,0.475474 0.13985,1.034855 0,1.20267 -0.41954,2.09768 -0.41954,0.867041 -1.1747,1.454391 -0.7272,0.559381 -1.73408,0.839072 -0.97892,0.27969 -2.12565,0.27969 -0.8111,0 -1.67814,-0.27969 -0.27969,0.223752 -0.39157,0.447505 -0.11188,0.223752 -0.11188,0.58735 0,0.531412 0.44751,0.783134 0.47547,0.251721 1.65017,0.251721 h 2.23753 q 2.57315,0 3.91567,0.839072 1.37048,0.811103 1.37048,2.68503 0,1.090793 -0.55938,1.985803 -0.53141,0.922979 -1.5383,1.566268 -1.00689,0.671257 -2.43331,1.034855 -1.42642,0.391567 -3.21644,0.391567 -1.23064,0 -2.29346,-0.223753 -1.03486,-0.195783 -1.84596,-0.615319 -0.78313,-0.419536 -1.23064,-1.090793 -0.4475,-0.671258 -0.4475,-1.594237 z m 6.12522,-9.257759 q 0.8111,0 1.34251,-0.559381 0.55939,-0.587351 0.55939,-1.762051 0,-1.090794 -0.55939,-1.650175 -0.53141,-0.58735 -1.34251,-0.58735 -0.8111,0 -1.37048,0.559381 -0.53142,0.559381 -0.53142,1.678144 0,1.1747 0.53142,1.762051 0.55938,0.559381 1.37048,0.559381 z"
         style="fill:#9e9e9e;fill-opacity:1;stroke-width:0.26440701px"
         id="path4541" />
    </g>
    <g
       id="g10518">
      <g
         transform="translate(2.9886077,2.3730299)"
         style="stroke-width:6;stroke-miterlimit:4;stroke-dasharray:none"
         id="g10505">
        <g
           transform="matrix(0.28222223,0,0,0.28222223,237.85811,-1729.1481)"
           style="stroke:#444444;stroke-width:21.25984192;stroke-miterlimit:4;stroke-dasharray:none;stroke-opacity:1"
           id="g6292">
          <rect
             y="6129.2646"
             x="-842.80432"
             height="206.24994"
             width="206.25005"
             id="rect6290"
             style="opacity:1;fill:none;fill-opacity:1;stroke:#444444;stroke-width:21.25984192;stroke-miterlimit:4;stroke-dasharray:none;stroke-dashoffset:0;stroke-opacity:1" />
        </g>
        <path
           id="path6294"
           title="sin(x/2)"
           d="m 55.5625,0.66666667 c -0.928371,0 -1.856705,0.13319437 -2.785079,0.39715343 -0.928371,0.2636873 -1.856744,0.6592201 -2.785077,1.1798418 -0.928372,0.5208916 -1.856743,1.1674139 -2.785116,1.9309205 -0.928334,0.7632369 -1.856705,1.6439988 -2.785078,2.6290465 -0.928372,0.9850477 -1.856743,2.0754629 -2.785077,3.2555751 -0.928372,1.180112 -1.856744,2.450461 -2.785115,3.793218 -0.928336,1.342755 -1.856706,2.758458 -2.785077,4.227385 -0.928374,1.469197 -1.856708,2.991617 -2.785079,4.546459 -0.928372,1.555111 -1.856744,3.142642 -2.785115,4.741252 -0.928334,1.598609 -1.856707,3.208295 -2.785078,4.806905 -0.928371,1.598608 -1.856705,3.18614 -2.785079,4.741251 -0.928371,1.555112 -1.856705,3.077263 -2.785077,4.546188 -0.928408,1.469197 -1.856743,2.88463 -2.785079,4.227655 -0.928407,1.342757 -1.856742,2.612837 -2.785115,3.793218 -0.928334,1.180113 -1.856705,2.270258 -2.785077,3.255575 -0.928372,0.985319 -1.856742,1.86554 -2.785113,2.629047 -0.928337,0.763506 -1.8567441,1.409758 -2.785079,1.93092 C 7.2876175,57.819171 6.3592466,58.214164 5.4308755,58.478121 4.5025393,58.742347 3.5742044,58.875 2.6458333,58.875"
           style="opacity:1;fill:none;fill-opacity:1;stroke:#444444;stroke-width:6;stroke-miterlimit:4;stroke-dasharray:none;stroke-dashoffset:0;stroke-opacity:1"
           inkscape:connector-curvature="0" />
      </g>
      <ellipse
         ry="5.9999995"
         rx="6"
         style="opacity:1;fill:#444444;fill-opacity:1;stroke:#fafafa;stroke-width:3.70000005;stroke-miterlimit:4;stroke-dasharray:none;stroke-dashoffset:0;stroke-opacity:1"
         id="ellipse6298"
         cx="3.0075381"
         cy="61.284782" />
      <ellipse
         cy="3.0193295"
         cx="61.201427"
         id="ellipse10510"
         style="opacity:1;fill:#f0544c;fill-opacity:1;stroke:#fafafa;stroke-width:3.70000005;stroke-miterlimit:4;stroke-dasharray:none;stroke-dashoffset:0;stroke-opacity:1"
         rx="6"
         ry="5.9999995" />
    </g>
  </g>
</svg>
